<svg width="317" height="358" viewBox="0 0 317 358" fill="none" xmlns="http://www.w3.org/2000/svg">
<g clip-path="url(#clip0)">
<path d="M230.951 283.497C298.817 240.583 316.774 147.105 271.059 74.707C225.344 2.30942 133.268 -21.5918 65.4021 21.3222C-2.46378 64.2362 -20.4205 157.715 25.2947 230.112C71.0098 302.51 163.085 326.411 230.951 283.497Z" fill="#DEE8FF"/>
<path d="M81.7157 310.691C74.8402 272.403 54.327 274.961 24.8593 260.378C34.0449 308.873 50.4351 344.913 80.1887 357.193L81.7157 310.691Z" fill="#4ABFB8"/>
<path d="M159.035 310.691C159.035 310.691 172.022 200.55 259.729 160.702C259.729 160.702 245.233 225.184 246.275 246.969C247.316 268.755 231.447 330.424 197.069 357.436H153.134L159.035 310.691Z" fill="url(#paint0_linear)"/>
<path d="M188.494 321.933C188.494 321.933 197.711 238.283 284.055 208.014C284.055 208.014 263.468 246.965 264.419 281.128C264.881 297.765 261.58 336.916 228.123 357.432H184.191L188.494 321.933Z" fill="url(#paint1_linear)"/>
<path d="M81.2811 76.515C81.2811 76.515 30.6972 111.399 50.7366 143.187C70.7759 174.98 122.977 187.412 122.977 187.412L140.898 78.1685L81.2811 76.515Z" fill="#1E1C61"/>
<path d="M171.067 164.507L202.398 224.185L180.131 236.688L142.448 170.556L171.067 164.507Z" fill="#F57E71"/>
<path d="M167.281 211.365L189.282 200.115C189.282 200.115 191.083 212.109 181.27 215.142C171.458 218.174 167.281 211.365 167.281 211.365Z" fill="#E05F51"/>
<path d="M166.673 211.698C166.673 211.698 185.648 212.195 189.563 197.956L183.71 186.166L159.034 199.191L166.673 211.698Z" fill="white"/>
<path d="M145.354 122.93C156.756 122.127 163.749 134.654 168.6 154.633L188.671 192.373C188.671 192.373 182.414 217.982 150.483 205.021C106.254 187.064 145.354 122.93 145.354 122.93Z" fill="#C9DAFF"/>
<path d="M92.863 260.127C75.6545 289.537 81.0266 357.436 81.0266 357.436H178.345L163.083 258.074L92.863 260.127Z" fill="#D6E3FF"/>
<path d="M104.582 356.758C98.5875 313.975 115.177 301.699 107.828 253.92L92.8631 246.969C62.8746 273.97 73.7478 311.201 78.2349 357.436L104.582 356.758Z" fill="#A6C2FF"/>
<path d="M158.478 256.945C158.596 249.63 162.668 225.733 164.434 211.874C166.086 198.924 174.046 200.848 171.255 185.065C170.89 176.453 157.872 154.327 157.21 148.038C156.164 138.094 157.887 127.554 136.986 117.766L127.797 119.76C123.415 120.713 119.175 122.131 115.185 123.98C72.5771 143.728 63.2896 144.692 66.2575 169.667C66.743 182.507 74.3782 172.515 76.6805 181.022C81.0932 197.337 98.3095 213.951 92.2444 242.561C91.0189 248.337 86.5005 252.271 91.6415 256.099C113.924 272.696 158.177 275.976 158.478 256.945Z" fill="#D6E3FF"/>
<path d="M163.251 256.82C163.279 257.439 163.31 256.777 163.251 256.82V256.82Z" fill="#FF5CAB"/>
<path d="M173.103 182.589C172.739 173.977 157.48 149.504 156.818 143.215L156.756 147.161C157.48 154.064 167.449 170.78 167.852 180.234C170.479 195.096 163.835 208.684 163.835 208.684C163.835 208.684 175.475 196.001 173.103 182.589Z" fill="#E0EBFF"/>
<path d="M89.4684 171.226L80.549 202.212L92.2484 247.071L100.553 252.902V213.59C94.3392 201.306 91.7119 186.409 89.4684 171.226Z" fill="#A6C2FF"/>
<path d="M91.6768 134.818C91.6768 134.818 108.165 174.357 132.116 164.056C156.067 153.755 138.713 117.989 138.713 117.989C138.713 117.989 113.838 123.11 91.6768 134.818Z" fill="#F57E71"/>
<path d="M96.2539 132.62C96.2539 132.62 110.776 173.389 134.692 162.567C153.247 154.166 139.786 120.442 139.786 120.442L144.786 121.406C144.786 121.406 162.809 160.161 135.714 171.226C111.873 180.959 89.8834 135.676 89.8834 135.676L96.2539 132.62Z" fill="white"/>
<path d="M90.878 180.23C96.7434 194.203 100.553 212.062 133.49 220.349C133.49 220.349 104.328 226.07 96.8843 223.535C89.441 220.999 90.878 180.23 90.878 180.23Z" fill="#A6C2FF"/>
<path d="M165.663 206.424C165.663 206.424 164.79 207.493 164.532 207.858C163.255 209.648 159.128 215.048 154.9 216.392L163.753 216.975" fill="#A6C2FF"/>
<path d="M128.768 316.353L88.9711 302.444C81.8488 299.956 78.09 292.158 80.5763 285.027L106.082 211.948C108.568 204.821 116.36 201.06 123.486 203.548L163.283 217.461C170.405 219.949 174.164 227.747 171.677 234.878L146.172 307.957C143.686 315.084 135.894 318.845 128.768 316.353Z" fill="#292685"/>
<path d="M114.128 208.437L86.0062 289.02L139.452 307.697L167.573 227.114L114.128 208.437Z" fill="#FAFAFA"/>
<path d="M131.023 274.189C106.007 273.202 83.5951 266.404 63.4109 254.633C57.9801 251.468 56.1125 246.135 55.9832 240.062C55.6857 226.14 57.1187 199.484 61.8251 195.464L80.0673 218.578L77.9216 239.023C101.508 249.414 115.823 261.044 130.232 265.424L131.023 274.189Z" fill="#F57E71"/>
<path d="M67.7845 252.619C62.898 248.65 61.1204 240.481 60.9912 234.408C60.7797 224.592 60.8032 209.421 62.4829 199.912L60.905 198.101C56.2025 202.121 56.0381 226.83 56.3357 240.751C56.4649 246.824 59.8948 252.553 65.3256 255.719C85.5098 267.485 107.922 274.283 132.938 275.275C132.938 275.275 88.7518 269.66 67.7845 252.619Z" fill="#E05F51"/>
<path d="M124.253 263.222C124.253 263.222 142.773 255.781 150.268 258.317C155.765 260.178 164.301 266.459 168.451 269.668C169.14 270.2 168.717 271.251 167.868 271.113L159.802 269.84L166.634 275.4L162.836 280.278C161.235 282.335 158.24 282.754 155.926 281.25L144.144 273.594C144.144 273.594 142.613 279.122 126.532 275.255C122.758 274.342 124.253 263.222 124.253 263.222Z" fill="#F57E71"/>
<path d="M59.1157 226.418L79.5897 225.372C79.5897 225.372 71.5278 235.191 59.3663 231.641L59.1157 226.418Z" fill="#E05F51"/>
<path d="M55.5879 223.962C55.5879 223.962 65.122 231.363 79.7659 225.333L80.6077 214.781L55.5879 213.006V223.962Z" fill="white"/>
<path d="M92.4559 170.811L85.737 213.457C84.7738 219.577 80.0948 223.977 74.3234 224.205C65.7603 224.538 54.75 223.025 54.7304 213.03C54.6795 185.406 60.9364 163.876 65.8542 151.228C67.9882 145.734 74.0885 144.441 80.9288 140.167C82.0369 139.477 81.2499 145.578 82.4793 146.471C89.9657 151.913 93.9125 161.552 92.4559 170.811Z" fill="#D6E3FF"/>
<path d="M65.8542 151.228C65.8542 151.228 51.8055 189.399 54.7304 214.382C54.7304 214.382 54.6873 221.035 62.7179 222.994C62.7179 222.994 59.8988 217.011 60.0945 209.433C60.2903 201.855 63.5088 212.105 64.6756 209.362C65.8464 206.623 66.4493 196.479 65.8542 189.403C65.259 182.327 69.6287 162.058 67.5183 157.266C65.4078 152.481 65.8542 151.228 65.8542 151.228Z" fill="#A6C2FF"/>
<path d="M204.043 227.378C208.683 200.585 205.871 178.569 212.833 161.619L201.192 160.816C201.192 160.816 170.28 233.53 182.363 239.772C200.421 249.101 204.043 227.378 204.043 227.378Z" fill="#F57E71"/>
<path d="M209.579 142.247C210.018 143.952 208.452 148.281 208.311 150.902C207.931 157.928 208.867 164.573 208.867 164.573C208.867 164.573 203.937 170.113 200.029 165.126C196.118 160.142 201.928 150.08 201.928 150.08L206.122 137.874C206.118 137.874 207.97 135.974 209.579 142.247Z" fill="#F57E71"/>
<path d="M226.917 147.842C226.956 145.554 226.991 143.015 226.991 143.015C226.929 138.991 225.672 135.59 222.759 132.839L215.985 143.086C211.482 146.847 207.888 150.229 207.645 153.281L205.002 154.911C204.626 155.142 204.403 155.561 204.411 156.012L204.61 169.287C204.626 170.38 205.875 170.983 206.678 170.29C207.543 169.537 208.741 168.409 210.123 167.065L207.755 176.046C207.755 176.046 221.38 159.319 224.791 153.845C224.826 153.79 224.869 153.727 224.916 153.661C226.149 151.96 226.882 149.95 226.917 147.842Z" fill="#F57E71"/>
<path d="M136.278 121.68C141.039 122.875 145.687 124.795 147.206 129.086C148.377 132.401 148.048 135.782 149.438 139.109C152.167 145.64 157.805 151.043 161.74 157.105C162.899 158.892 166.168 157.638 165.006 155.843C159.786 147.807 152.719 141.303 151.462 132.079C150.487 124.917 145.683 120.905 137.386 118.82C135.072 118.24 133.952 121.097 136.278 121.68Z" fill="#292685"/>
<path d="M147.452 132.479C147.398 141.056 139.441 149.245 145.503 158.104C146.709 159.867 149.982 158.617 148.768 156.842C143.294 148.841 151.109 140.664 151.156 132.832C151.168 130.861 147.464 130.508 147.452 132.479Z" fill="#292685"/>
<path d="M161.117 161L162.441 184.701C162.5 189.826 162.077 192.733 154.406 192.714C154.535 193.595 154.673 194.477 154.86 195.359L156.051 195.382C161.681 195.496 166.086 191.828 165.828 187.162L164.242 158.758C163.98 154.092 160.863 156.423 161.117 161Z" fill="white"/>
<path d="M150.773 192.643L154.755 192.353C155.875 192.271 156.94 192.972 157.116 193.909L157.206 194.391C157.386 195.327 156.615 196.162 155.491 196.244L151.509 196.534C150.389 196.616 149.324 195.919 149.148 194.978L149.058 194.497C148.882 193.56 149.653 192.726 150.773 192.643Z" fill="#292685"/>
<path d="M151.45 161.235L164.72 182.965C167.789 187.593 169.947 190.073 176.834 187.647C177.257 188.482 177.672 189.317 178.04 190.167L176.983 190.563C171.991 192.432 165.789 190.516 163.177 186.237L147.276 160.2C144.661 155.922 148.885 157.038 151.45 161.235Z" fill="white"/>
<path d="M180.057 186.441L176.298 187.428C175.241 187.706 174.712 188.67 175.123 189.567L175.334 190.03C175.746 190.927 176.948 191.436 178.005 191.158L181.764 190.171C182.821 189.893 183.349 188.929 182.938 188.032L182.727 187.569C182.316 186.672 181.114 186.163 180.057 186.441Z" fill="#292685"/>
<path d="M162.288 158.927L164.316 158.704C165.37 158.586 166.047 157.779 165.832 156.897L165.612 155.988C165.397 155.107 164.371 154.484 163.318 154.601L161.29 154.825C160.236 154.942 159.559 155.749 159.774 156.631L159.994 157.54C160.209 158.422 161.235 159.041 162.288 158.927Z" fill="#292685"/>
<path d="M148.204 160.612L150.107 160.048C151.094 159.754 151.552 158.837 151.129 157.998L150.694 157.132C150.272 156.294 149.128 155.847 148.142 156.141L146.239 156.705C145.252 156.999 144.794 157.916 145.217 158.755L145.651 159.62C146.074 160.463 147.218 160.906 148.204 160.612Z" fill="#292685"/>
<path d="M312.196 56.8965L218.013 49.3265C215.304 49.1071 213.029 51.2582 212.958 54.1028L211.838 100.013C211.768 102.857 213.929 105.365 216.643 105.584L310.825 113.154C313.535 113.374 315.81 111.223 315.88 108.378L317 62.4682C317.07 59.6196 314.909 57.1159 312.196 56.8965Z" fill="#BFD3FF"/>
<path d="M290.34 124.838L196.157 117.268C193.447 117.049 191.286 114.545 191.353 111.697L192.473 65.7869C192.543 62.9423 194.818 60.7912 197.527 61.0106L291.71 68.5806C294.42 68.8 296.581 71.3038 296.514 74.1523L295.394 120.062C295.324 122.907 293.053 125.054 290.34 124.838Z" fill="white"/>
<path d="M237.79 99.4089C241.281 90.9363 236.26 80.8287 226.576 76.8329C216.892 72.837 206.211 76.4661 202.72 84.9386C199.229 93.4111 204.25 103.519 213.934 107.515C223.618 111.51 234.299 107.881 237.79 99.4089Z" fill="#2FD6EC"/>
<path d="M272.422 85.1939L246.643 82.9291L246.51 89.9193L272.289 92.184L272.422 85.1939Z" fill="#A6C2FF"/>
<path d="M246.408 95.1148L246.275 102.109L285.39 105.541L285.524 98.5511L246.408 95.1148Z" fill="#A6C2FF"/>
<path d="M149.52 225.392L129.32 218.135C127.174 217.363 126.051 214.981 126.822 212.834C127.593 210.687 129.974 209.562 132.12 210.334L152.319 217.591C154.465 218.362 155.589 220.745 154.817 222.892C154.046 225.039 151.662 226.164 149.52 225.392Z" fill="#D6E3FF"/>
<path d="M81.8411 75.5903C81.8411 75.5903 50.7679 82.6079 43.446 94.8053C36.1241 107.003 50.5369 136.15 50.5369 136.15L50.0906 120.72C50.0906 120.72 31.1828 91.5649 80.8426 83.6188C114.191 78.2861 81.8411 75.5903 81.8411 75.5903Z" fill="#1E1C61"/>
<path d="M118.889 143.646L120.502 143.971C125.957 145.068 130.992 141.749 131.689 136.597L135.632 107.539C136.333 102.387 132.441 97.2738 126.986 96.1727L125.373 95.8475C119.919 94.7504 114.884 98.0692 114.187 103.222L106.054 130.269C105.353 135.422 113.435 142.549 118.889 143.646Z" fill="#F57E71"/>
<path d="M105.921 60.4738C110.612 52.4219 118.083 50.8193 125.177 55.1686C131.924 52.1985 140.291 56.0384 146.669 66.2101C155.554 80.3745 155.287 100.4 150.362 113.115C147.695 120.003 144.469 124.838 128.114 122.468C117.025 120.669 109.954 116.308 103.407 105.866C94.5232 91.706 99.0769 72.2128 105.921 60.4738Z" fill="#F57E71"/>
<path d="M133.717 123.663C133.717 123.663 120.604 123.412 111.544 111.027C111.544 111.027 120.581 129.74 132.617 131.789L133.717 123.663Z" fill="#E05F51"/>
<path d="M96.2539 132.62C96.2539 132.62 99.4411 130.43 106.771 127.883L112.742 107.445C112.742 107.445 109.915 111.583 116.188 117.817L115.087 121.97C113.603 127.566 110.029 132.291 105.056 135.233L98.6893 138.415L96.2539 132.62Z" fill="#E05F51"/>
<path d="M104.809 95.3068C104.809 95.3068 122.221 99.5228 129.281 75.892C129.281 75.892 131.826 67.7656 129.837 64.7486C127.852 61.7276 104.809 95.3068 104.809 95.3068Z" fill="#B2B1B3"/>
<path d="M144.837 71.8327C126.141 102.689 114.496 94.3194 114.163 99.0644C114.163 99.0644 111.219 111.728 111.215 111.755C109.504 121.21 99.8601 117.668 90.784 120.971L90.7566 120.983C90.7566 120.983 59.6874 87.0354 96.2539 57.9857C120.996 38.328 156.517 55.9561 153.447 80.97L144.837 71.8327Z" fill="#1E1C61"/>
<path d="M62.1619 154.119C62.1619 154.119 88.141 136.558 89.3665 127.346C90.5921 118.134 103.912 115.184 105.749 104.859L115.698 97.3913C115.698 97.3913 134.833 97.9555 144.79 70.8884C144.79 70.8884 142.734 65.6302 136.477 67.4678C130.22 69.3055 128.787 86.0206 120.898 87.8034C113.012 89.5823 105.588 102.215 100.083 106.901C94.5819 111.591 83.8614 107.978 77.2442 121.167C70.631 134.352 62.1619 154.119 62.1619 154.119Z" fill="#292685"/>
<path d="M117.434 103.773C119.294 100.473 117.868 96.1407 114.248 94.0973C110.628 92.0539 106.185 93.0729 104.325 96.3732C102.464 99.6735 103.891 104.005 107.511 106.049C111.131 108.092 115.574 107.073 117.434 103.773Z" fill="#F57E71"/>
<path d="M112.104 100.459C112.926 99.8245 112.953 98.5903 112.151 97.838C111.011 96.7644 109.285 95.7691 108.082 97.9634C106.869 100.181 108.337 102.932 109.606 104.683C109.833 105 110.31 104.789 110.209 104.417C109.899 103.284 109.856 101.956 110.964 101.251C111.43 100.953 111.802 100.69 112.104 100.459Z" fill="#E05F51"/>
<path d="M144.837 71.8327L153.443 80.97C153.443 80.97 155.687 71.1431 147.711 61.9627C147.711 61.9627 139.222 52.3435 130.315 50.9604C121.407 49.5773 114.938 79.7201 136.152 77.0988L144.837 71.8327Z" fill="#292685"/>
<path d="M119.52 182.417C114.778 171.724 109.226 161.419 105.138 150.346C102.456 143.078 99.8835 133.94 106.305 127.131C107.585 125.771 106.05 123.53 104.754 124.901C98.8341 131.182 98.8224 138.854 100.913 146.424C104.555 159.593 111.579 171.453 116.994 183.655C117.711 185.285 120.244 184.051 119.52 182.417Z" fill="#292685"/>
<path d="M124.222 193.61C128.048 190.502 128.721 184.988 125.726 181.296C122.731 177.603 117.201 177.129 113.374 180.236C109.548 183.344 108.875 188.858 111.87 192.55C114.865 196.243 120.395 196.718 124.222 193.61Z" fill="#6763DB"/>
<path d="M122.183 190.436C125.131 188.041 125.651 183.794 123.344 180.95C121.036 178.105 116.776 177.741 113.828 180.135C110.88 182.53 110.36 186.777 112.667 189.622C114.974 192.466 119.235 192.831 122.183 190.436Z" fill="#FBFBFF"/>
<path d="M121.127 188.018C124.075 185.623 124.595 181.376 122.288 178.532C119.981 175.687 115.72 175.323 112.772 177.718C109.824 180.112 109.304 184.359 111.611 187.204C113.919 190.048 118.179 190.413 121.127 188.018Z" fill="#292685"/>
<path d="M120.13 180.277C121.027 182.107 120.295 184.529 118.494 185.684C116.697 186.84 114.512 186.296 113.615 184.466C112.718 182.636 113.451 180.215 115.252 179.059C117.053 177.903 119.238 178.448 120.13 180.277Z" fill="#6763DB"/>
<path d="M227.81 102.599C229.505 102.724 230.668 100.538 230.272 99.1506C229.889 97.8027 229.356 96.5998 228.863 96.1766C228.42 95.7966 227.861 95.585 227.367 95.3969C226.858 95.2049 226.2 94.9032 225.562 94.6172C225.351 94.5192 225.135 94.4252 224.924 94.3312L223.636 93.7003C223.444 93.571 223.256 93.4417 223.064 93.3124C223.033 93.2889 222.962 93.2537 222.931 93.2223C222.923 93.1479 222.935 93.0577 222.939 92.9872C222.943 92.4935 222.947 92.0037 222.951 91.51C223.514 91.0516 223.882 90.3816 224.031 89.6293C224.916 89.7116 225.175 88.6733 225.296 87.9601C225.382 87.4547 225.527 86.2087 224.85 86.0285C224.869 85.9462 224.889 85.8678 224.912 85.7973C225.041 85.3545 225.159 84.9039 225.182 84.4416C225.206 83.9792 225.139 83.4973 224.92 83.082C224.869 82.984 224.799 82.886 224.713 82.8273C224.736 82.6666 224.689 82.4825 224.63 82.3257C224.18 81.0954 223.182 80.2334 222.109 79.8808C221.036 79.532 219.897 79.6457 218.824 79.9552C218.037 80.1825 216.979 80.6918 216.893 81.8399C216.882 81.9888 216.913 82.1181 216.964 82.2317C216.815 82.2317 216.698 82.3571 216.615 82.4864C216.369 82.8665 216.267 83.3366 216.255 83.8029C216.247 84.2692 216.33 84.7315 216.423 85.19C216.439 85.2605 216.451 85.3388 216.467 85.4211C215.621 85.3467 215.711 86.7377 215.777 87.298C215.86 87.9954 216.052 89.0102 216.854 89.1121C216.893 89.4216 216.956 89.7233 217.066 90.0094C217.226 90.4286 217.457 90.7656 217.735 91.0477C217.731 91.0555 217.727 91.0595 217.727 91.0673C217.723 91.5727 217.72 92.0782 217.716 92.5836C217.716 92.6267 217.727 92.7051 217.72 92.756C217.708 92.7247 217.571 92.8658 217.535 92.8932C217.406 92.9951 217.281 93.093 217.152 93.1949C217.152 93.1949 217.152 93.191 217.148 93.191L216.795 93.2889L216.792 93.2811L216.705 93.3007C216.474 93.3555 216.236 93.4261 215.997 93.5083L215.969 93.5162C215.664 93.618 215.358 93.7356 215.057 93.8531C214.513 94.0608 213.965 94.1784 213.432 94.3978C212.101 94.9502 210.249 96.6429 209.853 99.2524C209.665 100.475 210.308 101.321 211.517 101.435L227.81 102.599ZM225.116 87.9954C225.104 88.0659 225.092 88.1286 225.081 88.1756C225.092 88.1208 225.104 88.0581 225.116 87.9954Z" fill="white"/>
<path d="M31.3942 357.436H279.838" stroke="#B9BCC0" stroke-width="2.875" stroke-miterlimit="10" stroke-linecap="round" stroke-linejoin="round"/>
</g>
<defs>
<linearGradient id="paint0_linear" x1="153.133" y1="259.07" x2="259.728" y2="259.07" gradientUnits="userSpaceOnUse">
<stop offset="0.0368" stop-color="#7DA6FF"/>
<stop offset="0.2083" stop-color="#76A0FB"/>
<stop offset="0.4641" stop-color="#618EF0"/>
<stop offset="0.7714" stop-color="#4072DD"/>
<stop offset="0.9702" stop-color="#275CCF"/>
</linearGradient>
<linearGradient id="paint1_linear" x1="180.824" y1="282.727" x2="287.206" y2="277.932" gradientUnits="userSpaceOnUse">
<stop offset="0.0368" stop-color="#7DA6FF"/>
<stop offset="0.2083" stop-color="#76A0FB"/>
<stop offset="0.4641" stop-color="#618EF0"/>
<stop offset="0.7714" stop-color="#4072DD"/>
<stop offset="0.9702" stop-color="#275CCF"/>
</linearGradient>
<clipPath id="clip0">
<rect width="317" height="358" fill="white"/>
</clipPath>
</defs>
</svg>
